<svg width="232" height="51" viewBox="0 0 232 51" fill="none" xmlns="http://www.w3.org/2000/svg">
<rect width="231.259" height="50.1252" rx="9.11367" fill="#F2F740"/>
<path d="M64.7211 30.3498C63.3844 29.0374 62.7161 27.4395 62.7161 25.556C62.7161 23.6725 63.3844 22.0806 64.7211 20.7804C66.0699 19.468 67.7408 18.8119 69.7336 18.8119C71.7265 18.8119 73.3913 19.468 74.7279 20.7804C76.0767 22.0806 76.7512 23.6725 76.7512 25.556C76.7512 27.4395 76.0767 29.0374 74.7279 30.3498C73.3913 31.65 71.7265 32.3001 69.7336 32.3001C67.7408 32.3001 66.0699 31.65 64.7211 30.3498ZM66.7808 22.5485C66.0153 23.3262 65.6325 24.3287 65.6325 25.556C65.6325 26.7833 66.0153 27.7919 66.7808 28.5817C67.5585 29.3594 68.5428 29.7483 69.7336 29.7483C70.9245 29.7483 71.9027 29.3594 72.6682 28.5817C73.4459 27.7919 73.8348 26.7833 73.8348 25.556C73.8348 24.3287 73.4459 23.3262 72.6682 22.5485C71.9027 21.7586 70.9245 21.3637 69.7336 21.3637C68.5428 21.3637 67.5585 21.7586 66.7808 22.5485ZM77.5685 21.7282V19.1764H88.5049V21.7282H84.4038V31.9355H81.6697V21.7282H77.5685ZM89.8741 31.9355V19.1764H95.798C97.317 19.1764 98.5443 19.6078 99.4799 20.4705C100.428 21.3212 100.902 22.3783 100.902 23.6421C100.902 24.9059 100.428 25.9691 99.4799 26.8319C98.5443 27.6825 97.317 28.1078 95.798 28.1078H92.6082V31.9355H89.8741ZM92.6082 25.556H95.7069C96.4603 25.556 97.0436 25.3798 97.4567 25.0274C97.8699 24.675 98.0764 24.2132 98.0764 23.6421C98.0764 23.071 97.8699 22.6092 97.4567 22.2568C97.0436 21.9044 96.4603 21.7282 95.7069 21.7282H92.6082V25.556ZM102.637 31.9355V19.1764H105.371V26.5585L105.189 28.1078H105.371L110.566 19.1764H113.938V31.9355H111.204V24.5535L111.386 23.0041H111.204L106.009 31.9355H102.637ZM116.307 31.9355V19.1764H120.409L123.507 26.4673H123.963L127.061 19.1764H131.163V31.9355H128.429V23.8244L128.611 22.1839H128.429L125.512 29.0192H121.958L119.041 22.1839H118.859L119.041 23.8244V31.9355H116.307ZM132.355 31.9355L135.727 19.1764H141.469L144.841 31.9355H142.016L141.287 29.1103H135.91L135.18 31.9355H132.355ZM136.548 26.5585H140.649L139.373 21.7282H137.823L136.548 26.5585ZM144.39 21.7282V19.1764H155.327V21.7282H151.226V31.9355H148.491V21.7282H144.39ZM156.696 31.9355V19.1764H159.43V26.5585L159.248 28.1078H159.43L164.625 19.1764H167.997V31.9355H165.263V24.5535L165.445 23.0041H165.263L160.068 31.9355H156.696Z" fill="#292621"/>
</svg>
